<svg width="1280" height="720" xmlns="http://www.w3.org/2000/svg" xmlns:xlink="http://www.w3.org/1999/xlink" overflow="hidden"><defs><clipPath id="clip0"><rect x="0" y="0" width="1280" height="720"/></clipPath></defs><g clip-path="url(#clip0)"><rect x="0" y="0" width="1280" height="720" fill="#FFFFFF"/><rect x="206" y="429" width="76" height="76" stroke="#000000" stroke-width="4" stroke-miterlimit="8" fill="#FFFFFF"/><text font-family="Calibri,Calibri_MSFontService,sans-serif" font-weight="400" font-size="37" transform="translate(226.155 480)">x1</text><rect x="404" y="429" width="76" height="76" stroke="#000000" stroke-width="4" stroke-miterlimit="8" fill="#FFFFFF"/><text font-family="Calibri,Calibri_MSFontService,sans-serif" font-weight="400" font-size="37" transform="translate(424.286 480)">x2</text><rect x="602" y="430" width="76" height="75" stroke="#000000" stroke-width="4" stroke-miterlimit="8" fill="#FFFFFF"/><text font-family="Calibri,Calibri_MSFontService,sans-serif" font-weight="400" font-size="37" transform="translate(622.417 480)">x3</text><rect x="800" y="429" width="76" height="76" stroke="#000000" stroke-width="4" stroke-miterlimit="8" fill="#FFFFFF"/><text font-family="Calibri,Calibri_MSFontService,sans-serif" font-weight="400" font-size="37" transform="translate(820.547 480)">x4</text><rect x="998" y="429" width="76" height="76" stroke="#000000" stroke-width="4" stroke-miterlimit="8" fill="#FFFFFF"/><text font-family="Calibri,Calibri_MSFontService,sans-serif" font-weight="400" font-size="37" transform="translate(1018.68 480)">x5</text><path d="M0.163386 1.99331-3.64911 2.30581-3.30507 2.24706-7.11757 3.24706-6.8447 3.154-10.5322 4.7165-10.2792 4.58738-13.9042 6.77488-13.7511 6.67261-17.3136 9.29761-17.1412 9.15502-20.5162 12.28-20.3845 12.1461-23.572 15.7086-23.4595 15.5709-26.397 19.5084-26.2786 19.3308-31.5286 28.2058-31.3963 27.9384-35.3963 37.8134-35.327 37.6119-36.827 42.8619-36.7888 42.7047-37.8513 48.0172-37.8283 47.8759-38.5158 53.3134-38.5021 53.1533-38.7521 58.6533-38.7521 58.4717-38.5021 63.9717-38.5158 63.8116-37.8283 69.2491-37.8559 69.0857-36.7309 74.3982-36.7645 74.2631-35.2645 79.5131-35.3379 79.3016-31.2754 89.1766-31.4089 88.9103-26.0964 97.7853-26.2311 97.5882-23.2311 101.463-23.335 101.34-20.085 104.902-20.2172 104.77-16.7797 107.895-16.9205 107.778-13.358 110.466-13.7254 110.246-8.27519 112.758-9.94932 116.391-15.5951 113.789-19.4026 110.916-22.977 107.667-26.3445 103.976-29.4671 99.9423-34.9178 90.8365-39.0798 80.7197-40.6297 75.295-41.7863 69.8332-42.4943 64.2336-42.7521 58.5625-42.4943 52.8914-41.7877 47.303-40.6953 41.8409-39.1437 36.4105-35.0475 26.298-29.667 17.2022-26.6123 13.1077-23.3028 9.40885-19.7766 6.14385-16.0497 3.39773-12.2239 1.08905-8.27223-0.58539-4.15048-1.6665-0.163386-1.99331ZM-9.58623 108.267 0.584882 117.017-12.5171 119.904Z" transform="matrix(1.83697e-16 1 1 -1.83697e-16 284 427)"/><path d="M0.163386 1.99331-3.64911 2.30581-3.30507 2.24706-7.11757 3.24706-6.8447 3.154-10.5322 4.7165-10.2792 4.58738-13.9042 6.77488-13.7511 6.67261-17.3136 9.29761-17.1412 9.15502-20.5162 12.28-20.3845 12.1461-23.572 15.7086-23.4595 15.5709-26.397 19.5084-26.2786 19.3308-31.5286 28.2058-31.3963 27.9384-35.3963 37.8134-35.327 37.6119-36.827 42.8619-36.7888 42.7047-37.8513 48.0172-37.8283 47.8759-38.5158 53.3134-38.5021 53.1533-38.7521 58.6533-38.7521 58.4717-38.5021 63.9717-38.5158 63.8116-37.8283 69.2491-37.8559 69.0857-36.7309 74.3982-36.7645 74.2631-35.2645 79.5131-35.3379 79.3016-31.2754 89.1766-31.4089 88.9103-26.0964 97.7853-26.2311 97.5882-23.2311 101.463-23.335 101.34-20.085 104.902-20.2172 104.77-16.7797 107.895-16.9205 107.778-13.358 110.466-13.7254 110.246-8.27519 112.758-9.94932 116.391-15.5951 113.789-19.4026 110.916-22.977 107.667-26.3445 103.976-29.4671 99.9423-34.9178 90.8365-39.0798 80.7197-40.6297 75.295-41.7863 69.8332-42.4943 64.2336-42.7521 58.5625-42.4943 52.8914-41.7877 47.303-40.6953 41.8409-39.1437 36.4105-35.0475 26.298-29.667 17.2022-26.6123 13.1077-23.3028 9.40885-19.7766 6.14385-16.0497 3.39773-12.2239 1.08905-8.27223-0.58539-4.15048-1.6665-0.163386-1.99331ZM-9.58623 108.267 0.584882 117.017-12.5171 119.904Z" transform="matrix(-6.12323e-17 -1 -1 6.12323e-17 401.017 508.585)"/><path d="M480.006 427.424 480.333 423.377 481.412 419.197 483.08 415.192 485.389 411.234 488.138 407.503 491.396 403.92 495.092 400.547 499.189 397.426 508.288 391.979 518.405 387.817 523.83 386.268 529.292 385.111 534.891 384.403 540.562 384.145 546.234 384.403 551.822 385.109 557.284 386.202 562.72 387.755 572.827 391.913 581.934 397.236 585.968 400.359 589.654 403.657 592.905 407.169 595.785 410.919 598.346 416.477 594.713 418.151 592.246 412.797 592.476 413.178 589.789 409.678 589.907 409.819 586.782 406.444 586.916 406.575 583.354 403.388 583.463 403.479 579.588 400.479 579.803 400.624 570.928 395.436 571.177 395.559 561.302 391.497 561.513 391.57 556.263 390.07 556.42 390.108 551.108 389.046 551.249 389.069 545.812 388.381 545.972 388.395 540.472 388.145 540.653 388.145 535.153 388.395 535.313 388.381 529.876 389.069 530.039 389.041 524.727 390.166 524.862 390.133 519.612 391.633 519.823 391.559 509.948 395.622 510.215 395.488 501.34 400.801 501.525 400.676 497.587 403.676 497.723 403.562 494.16 406.812 494.292 406.68 491.167 410.118 491.298 409.959 488.673 413.521 488.79 413.342 486.603 417.092 486.721 416.854 485.159 420.604 485.249 420.334 484.249 424.209 484.306 423.87 483.994 427.745ZM601.843 413.885 599.017 427 590.22 416.87Z"/><path d="M679.007 427.17 679.333 423.183 680.413 419.067 682.086 415.052 684.402 411.214 687.15 407.551 690.409 404.031 694.1 400.728 698.193 397.609 707.298 392.223 717.41 388.127 722.841 386.576 728.303 385.483 733.891 384.777 739.562 384.519 745.222 384.776 750.811 385.418 756.273 386.511 761.694 387.995 771.803 391.962 780.908 397.156 784.937 400.145 788.633 403.322 791.887 406.772 794.77 410.392 797.194 415.493 793.581 417.21 791.256 412.317 791.498 412.704 788.81 409.329 788.92 409.456 785.795 406.143 785.946 406.288 782.384 403.225 782.496 403.315 778.621 400.44 778.821 400.571 769.946 395.508 770.207 395.633 760.332 391.758 760.534 391.825 755.284 390.387 755.42 390.42 750.108 389.357 750.272 389.383 744.834 388.758 744.972 388.769 739.472 388.519 739.653 388.519 734.153 388.769 734.313 388.755 728.876 389.443 729.017 389.42 723.705 390.482 723.862 390.444 718.612 391.944 718.813 391.875 708.938 395.875 709.206 395.742 700.331 400.992 700.525 400.862 696.587 403.862 696.709 403.761 693.146 406.949 693.28 406.817 690.155 410.192 690.287 410.033 687.662 413.533 687.775 413.367 685.587 416.992 685.721 416.728 684.159 420.478 684.247 420.216 683.247 424.028 683.306 423.684 682.993 427.497ZM800.651 412.845 798.017 426 789.073 415.999Z"/><path d="M877.007 426.837 877.333 422.85 878.413 418.734 880.086 414.719 882.402 410.881 885.15 407.217 888.409 403.697 892.1 400.395 896.193 397.276 905.298 391.89 915.411 387.794 920.841 386.242 926.303 385.15 931.891 384.443 937.562 384.186 943.234 384.443 948.822 385.15 954.284 386.242 959.714 387.794 969.827 391.89 978.938 397.28 982.968 400.4 986.654 403.697 989.905 407.209 992.783 410.956 995.35 416.468 991.724 418.157 989.25 412.845 989.476 413.218 986.789 409.718 986.907 409.859 983.782 406.484 983.916 406.616 980.354 403.428 980.463 403.519 976.588 400.519 976.794 400.659 967.919 395.409 968.187 395.541 958.312 391.541 958.513 391.611 953.263 390.111 953.42 390.149 948.108 389.086 948.249 389.109 942.812 388.422 942.972 388.436 937.472 388.186 937.653 388.186 932.153 388.436 932.313 388.422 926.876 389.109 927.017 389.086 921.705 390.149 921.862 390.111 916.612 391.611 916.813 391.541 906.938 395.541 907.206 395.409 898.331 400.659 898.525 400.528 894.587 403.528 894.709 403.428 891.146 406.616 891.28 406.484 888.155 409.859 888.287 409.7 885.662 413.2 885.775 413.033 883.587 416.658 883.721 416.394 882.159 420.144 882.247 419.883 881.247 423.695 881.306 423.351 880.993 427.163ZM998.853 413.887 996.017 427 987.228 416.863Z"/><path d="M998.01 508.163 997.683 512.15 996.604 516.266 994.931 520.281 992.615 524.12 989.867 527.783 986.608 531.303 982.916 534.606 978.823 537.724 969.719 543.11 959.606 547.206 954.176 548.758 948.714 549.85 943.125 550.557 937.454 550.815 931.783 550.557 926.195 549.85 920.732 548.758 915.302 547.206 905.19 543.11 896.078 537.72 892.049 534.6 888.363 531.303 885.111 527.791 882.234 524.044 879.667 518.532 883.293 516.843 885.767 522.156 885.54 521.782 888.228 525.282 888.109 525.141 891.234 528.516 891.1 528.385 894.663 531.572 894.553 531.481 898.428 534.481 898.222 534.341 907.097 539.591 906.83 539.459 916.705 543.459 916.504 543.389 921.754 544.889 921.596 544.851 926.909 545.914 926.767 545.891 932.205 546.578 932.045 546.565 937.545 546.815 937.363 546.815 942.863 546.565 942.703 546.578 948.141 545.891 947.999 545.914 953.312 544.851 953.155 544.889 958.405 543.389 958.203 543.459 968.078 539.459 967.811 539.591 976.686 534.341 976.492 534.472 980.43 531.472 980.308 531.572 983.87 528.385 983.737 528.516 986.862 525.141 986.729 525.3 989.354 521.8 989.242 521.967 991.429 518.342 991.295 518.606 992.858 514.856 992.77 515.118 993.77 511.305 993.711 511.649 994.023 507.837ZM876.163 521.113 879 508 887.788 518.137Z"/><path d="M800.01 507.163 799.683 511.151 798.603 515.266 796.931 519.281 794.614 523.12 791.867 526.783 788.608 530.303 784.916 533.606 780.823 536.724 771.719 542.11 761.606 546.206 756.176 547.758 750.714 548.85 745.125 549.557 739.454 549.815 733.794 549.557 728.206 548.915 722.743 547.823 717.323 546.338 707.214 542.372 698.109 537.178 694.08 534.188 690.383 531.011 687.129 527.562 684.246 523.941 681.822 518.84 685.435 517.123 687.76 522.017 687.519 521.629 690.206 525.004 690.096 524.878 693.221 528.19 693.07 528.046 696.633 531.108 696.521 531.019 700.396 533.894 700.195 533.763 709.07 538.825 708.81 538.701 718.685 542.576 718.482 542.509 723.732 543.946 723.596 543.914 728.909 544.976 728.745 544.951 734.182 545.576 734.045 545.565 739.545 545.815 739.363 545.815 744.863 545.565 744.703 545.578 750.141 544.891 749.999 544.914 755.312 543.851 755.155 543.89 760.405 542.39 760.203 542.459 770.078 538.459 769.811 538.591 778.686 533.341 778.492 533.472 782.429 530.472 782.308 530.572 785.87 527.385 785.737 527.516 788.862 524.141 788.729 524.3 791.354 520.8 791.242 520.967 793.429 517.342 793.295 517.606 794.858 513.856 794.769 514.118 795.769 510.305 795.711 510.649 796.023 506.837ZM678.366 521.489 681 508.333 689.944 518.334Z"/><path d="M601.01 508.161 600.684 512.208 599.605 516.388 597.936 520.392 595.628 524.35 592.878 528.082 589.621 531.665 585.924 535.037 581.827 538.159 572.728 543.605 562.611 547.767 557.187 549.317 551.725 550.474 546.125 551.182 540.454 551.44 534.783 551.182 529.195 550.475 523.732 549.383 518.297 547.83 508.19 543.672 499.083 538.349 495.049 535.225 491.363 531.928 488.111 528.416 485.231 524.665 482.671 519.107 486.304 517.434 488.771 522.788 488.54 522.407 491.228 525.907 491.109 525.766 494.234 529.141 494.1 529.01 497.663 532.197 497.553 532.106 501.428 535.106 501.213 534.961 510.088 540.148 509.84 540.025 519.715 544.088 519.504 544.014 524.754 545.514 524.596 545.476 529.909 546.539 529.767 546.516 535.205 547.203 535.045 547.19 540.545 547.44 540.363 547.44 545.863 547.19 545.703 547.203 551.141 546.516 550.977 546.543 556.29 545.418 556.155 545.452 561.405 543.952 561.193 544.025 571.068 539.963 570.802 540.096 579.677 534.784 579.492 534.909 583.43 531.909 583.294 532.022 586.856 528.772 586.724 528.905 589.849 525.467 589.719 525.626 592.344 522.064 592.227 522.242 594.414 518.492 594.295 518.731 595.858 514.981 595.768 515.25 596.768 511.375 596.711 511.714 597.023 507.839ZM479.173 521.7 482 508.585 490.796 518.715Z"/><path d="M0.124757 1.9961-3.87524 2.2461-3.62578 2.21468-7.56328 2.96468-7.33234 2.90625-11.2698 4.15625-11.0627 4.07762-15.0002 5.82762-14.8293 5.74165-18.7043 7.92915-18.5658 7.84334-22.4408 10.4683-22.3257 10.3842-26.1382 13.3842-26.0104 13.2746-29.7604 16.7746-29.6874 16.7029-33.3749 20.5154-33.3004 20.434-36.9254 24.6215-36.8274 24.4989-43.8274 33.9989-43.7322 33.8574-50.3572 44.6699-50.2868 44.5454-56.4743 56.4829-56.4177 56.3641-62.1052 69.3641-62.0631 69.2601-67.2506 83.1976-67.2127 83.0859-71.7127 97.7734-71.6838 97.6689-75.4963 113.044-75.4752 112.949-78.6002 128.824-78.5824 128.719-80.8949 144.969-80.8819 144.854-82.2569 161.354-82.2509 161.247-82.7509 177.935-82.7509 177.815-82.2509 194.44-82.2581 194.32-80.7581 210.882-80.771 210.773-78.396 227.023-78.4141 226.919-75.2266 242.794-75.2519 242.684-71.2519 258.059-71.2822 257.954-66.5947 272.642-66.6311 272.538-61.3187 286.475-61.365 286.364-55.49 299.364-55.5522 299.238-49.1146 311.176-49.1873 311.052-42.3123 321.864-42.4151 321.718-35.1026 331.218-35.1976 331.103-31.4476 335.291-31.5233 335.211-27.7108 339.023-27.7844 338.953-23.9094 342.453-24.05 342.337-20.05 345.337-20.1527 345.265-16.1527 347.89-16.2904 347.808-12.2904 349.995-12.4689 349.909-8.3439 351.659-8.73416 351.539-6.32445 352.019-7.10613 355.942-9.71714 355.421-14.1225 353.552-18.2801 351.279-22.3998 348.575-26.5229 345.483-30.5033 341.888-34.3907 338-38.227 333.716-45.6396 324.086-52.6013 313.137-59.1061 301.075-65.0349 287.956-70.3885 273.911-75.1094 259.119-79.1373 243.636-82.3463 227.654-84.7369 211.297-86.2473 194.62-86.7509 177.875-86.2475 161.074-84.8633 144.463-82.5351 128.103-79.3904 112.128-75.5531 96.6535-71.02 81.8577-65.7923 67.8123-60.0559 54.7006-53.8052 42.6411-47.0982 31.6948-40.001 22.0629-36.2885 17.7742-32.527 13.8853-28.678 10.2929-24.7432 7.19666-20.7417 4.48593-16.7123 2.21127-12.5859 0.37732-8.42893-0.942351-4.25048-1.73825-0.124757-1.9961ZM-7.65068 347.725 3.13491 355.705-9.71998 359.545Z" transform="matrix(1.83697e-16 1 1 -1.83697e-16 284 427)"/><path d="M0.14958 1.9944-4.85042 2.3694-4.53232 2.31955-9.46982 3.50705-9.18663 3.4162-14.1241 5.4162-13.9189 5.31914-18.8564 8.00664-18.6741 7.89438-23.5491 11.2694-23.3974 11.1533-28.2099 15.2158-28.0858 15.1017-32.8358 19.8517-32.7427 19.752-37.4302 25.127-37.3535 25.0335-41.9785 31.0335-41.9204 30.9542-46.4829 37.5167-46.4315 37.439-50.869 44.5015-50.8182 44.416-55.1307 52.1035-55.0999 52.0464-59.3499 60.2339-59.3157 60.1647-63.3782 68.7897-63.3578 68.7451-67.3578 77.8076-67.3255 77.7302-71.0755 87.2927-71.0624 87.2583-74.7499 97.1958-74.7311 97.1428-78.2311 107.455-78.2077 107.382-84.6452 129.069-84.6204 128.978-90.2454 151.853-90.2269 151.77-95.0394 175.645-95.0242 175.56-98.8992 200.248-98.8878 200.163-101.763 225.476-101.755 225.39-103.567 251.14-103.563 251.043-104.125 276.981-104.126 276.889-103.501 302.827-103.505 302.734-101.692 328.422-101.701 328.332-98.7633 353.644-98.7756 353.556-94.7756 378.306-94.7914 378.22-89.8539 402.095-89.8728 402.012-84.1228 424.887-84.1498 424.791-77.5248 446.478-77.5471 446.409-73.9846 456.722-74.0038 456.669-70.2538 466.606-70.2756 466.551-66.3381 476.113-66.3625 476.057-62.3 485.119-62.3258 485.064-58.1383 493.689-58.168 493.63-53.8555 501.818-53.8964 501.744-49.4589 509.369-49.5032 509.296-44.9407 516.421-44.9902 516.348-40.3652 522.91-40.4319 522.821-35.6819 528.821-35.76 528.728-30.9475 534.103-31.0418 534.005-26.1668 538.755-26.2918 538.643-21.3543 542.706-21.5061 542.592-16.5061 545.967-16.6872 545.858-11.6247 548.546-11.9564 548.407-6.56626 550.121-7.77849 553.933-13.3407 552.164-18.6562 549.342-23.8225 545.855-28.8981 541.679-33.8821 536.822-38.7805 531.351-43.6027 525.26-48.2854 518.616-52.8947 511.418-57.3748 503.719-61.7223 495.465-65.9375 486.783-70.0251 477.665-73.9857 468.046-77.7562 458.055-81.3397 447.681-87.9899 425.911-93.7625 402.947-98.7174 378.987-102.732 354.15-105.679 328.748-107.498 302.969-108.126 276.94-107.561 250.908-105.742 225.067-102.857 199.669-98.9691 174.897-94.1397 150.938-88.4933 127.976-82.0313 106.206-78.5098 95.8306-74.8062 85.8494-71.0341 76.2308-67.0073 67.1075-62.9179 58.4253-58.6352 50.1748-54.2824 42.4156-49.7937 35.2715-45.1765 28.6304-40.4846 22.5436-35.7125 17.0715-30.8546 12.2136-25.9045 8.03504-20.8628 4.5446-15.7313 1.75149-10.5502-0.347182-5.31064-1.60732-0.14958-1.9944ZM-8.05411 545.764 2.66268 553.835-10.2247 557.566Z" transform="matrix(1.83697e-16 1 1 -1.83697e-16 284 427)"/><path d="M0.188629 1.99108-5.74887 2.55358-5.40433 2.49012-11.2793 4.11512-11.0038 4.01671-16.9413 6.64171-16.6916 6.50952-22.5041 10.1345-22.3172 10.0025-28.1297 14.6275-27.9926 14.5078-33.7426 20.0078-33.6262 19.8867-39.3137 26.3242-39.2207 26.2109-44.7832 33.5234-44.7247 33.4423-50.2872 41.5673-50.2268 41.4736-55.6018 50.3486-55.5589 50.2742-60.8714 59.9617-60.8318 59.8858-65.9568 70.2608-65.9258 70.1949-70.9258 81.3199-70.9041 81.2699-75.7791 92.9574-75.7578 92.9042-80.5078 105.279-80.486 105.22-84.986 118.157-84.9724 118.117-89.3474 131.617-89.3315 131.565-93.4565 145.565-93.4449 145.524-97.3824 160.024-97.3727 159.987-101.123 174.924-101.113 174.883-104.613 190.196-104.604 190.154-107.854 205.904-107.843 205.845-113.53 238.283-113.519 238.21-118.144 271.773-118.135 271.699-121.572 306.074-121.566 305.996-123.691 340.934-123.688 340.852-124.375 376.039-124.375 375.979-124.188 393.604-124.189 393.561-123.626 411.123-123.629 411.066-121.504 446.004-121.51 445.922-118.01 480.297-118.02 480.22-113.27 513.782-113.281 513.71-107.469 546.147-107.48 546.088-104.168 561.838-104.177 561.797-100.615 577.109-100.625 577.068-96.8121 592.005-96.8242 591.96-92.7617 606.46-92.7714 606.427-88.5839 620.427-88.6 620.375-84.1625 633.875-84.1821 633.819-79.4946 646.756-79.511 646.713-74.6985 659.088-74.7202 659.034-69.7827 670.722-69.8085 670.663-64.6835 681.788-64.7155 681.722-59.4655 692.097-59.506 692.021-54.0685 701.709-54.1125 701.634-48.6125 710.509-48.6681 710.424-43.0431 718.549-43.1088 718.46-37.4213 725.772-37.5156 725.66-31.7031 732.097-31.8207 731.977-25.9457 737.477-26.0835 737.36-20.146 741.985-20.3408 741.851-14.3408 745.476-14.5734 745.355-8.57335 747.98-9.00802 747.846-6.81697 748.255-7.55092 752.188-9.96696 751.737-16.2969 748.967-22.5106 745.213-28.6131 740.46-34.6157 734.84-40.5336 728.286-46.3003 720.871-51.9858 712.659-57.5353 703.704-63.0151 693.941-68.3011 683.495-73.4549 672.308-78.4161 660.564-83.2475 648.141-87.9531 635.153-92.4084 621.599-96.6086 607.556-100.682 593.017-104.506 578.036-108.078 562.682-111.401 546.882-117.225 514.379-121.986 480.742-125.494 446.287-127.623 411.28-128.187 393.668-128.375 375.991-127.686 340.732-125.556 305.715-122.111 271.264-117.476 237.628-111.777 205.125-108.517 189.325-105.007 173.971-101.248 158.994-97.2995 144.455-93.1609 130.409-88.771 116.863-84.2536 103.875-79.4819 91.444-74.5854 79.7049-69.5593 68.5219-64.3992 58.0759-59.0455 48.3132-53.6193 39.3537-47.9971 31.1414-42.3599 23.7308-36.5682 17.1753-30.6916 11.5542-24.7181 6.80113-18.6882 3.04055-12.487 0.298981-6.30119-1.412-0.188629-1.99108ZM-8.10645 743.965 2.66268 751.966-10.2001 755.781Z" transform="matrix(1.83697e-16 1 1 -1.83697e-16 284 427)"/><path d="M0.145071 1.99473-3.29243 2.24473-3.01117 2.20403-6.44867 2.95403-6.19151 2.87959-9.62901 4.12959-9.39187 4.02551-12.7669 5.77551-12.5997 5.67831-15.9747 7.86581-15.8346 7.7662-19.2096 10.3912-19.0949 10.2949-22.4074 13.2949-22.2844 13.1734-25.5344 16.6734-25.4656 16.5953-28.6531 20.4078-28.5961 20.3364-31.7836 24.5239-31.689 24.3884-37.7515 33.8884-37.6717 33.7516-43.4217 44.5641-43.3638 44.4461-48.7388 56.3836-48.6928 56.2726-53.6303 69.2726-53.5967 69.177-58.0967 83.1145-58.0662 83.0102-61.9412 97.6977-61.9215 97.6163-65.2965 112.991-65.2781 112.896-67.9656 128.771-67.9525 128.682-69.9525 144.932-69.9427 144.831-71.1302 161.331-71.1257 161.24-71.5632 177.927-71.5632 177.822-71.1257 194.447-71.1307 194.349-69.8807 210.912-69.8909 210.811-67.8284 227.061-67.8419 226.971-65.0919 242.846-65.1107 242.751-61.6732 258.126-61.6953 258.037-57.6953 272.724-57.7268 272.62-53.1018 286.558-53.1363 286.462-48.0738 299.462-48.1246 299.343-42.5621 311.28-42.6219 311.162-36.6844 321.975-36.7667 321.838-30.5167 331.338-30.5961 331.226-27.4086 335.414-27.4903 335.313-24.1778 339.126-24.2478 339.049-20.8728 342.549-20.9838 342.443-17.6088 345.443-17.7237 345.348-14.2862 347.973-14.44 347.866-10.94 350.054-11.2868 349.882-6.94182 351.54-8.36822 355.277-12.895 353.549-16.6394 351.209-20.2105 348.482-23.6988 345.381-27.1632 341.788-30.5522 337.888-33.8205 333.594-40.1522 323.97-46.1599 313.03-51.7777 300.974-56.8822 287.866-61.5404 273.828-65.5668 259.044-69.0249 243.577-71.7909 227.609-73.8655 211.264-75.123 194.602-75.5632 177.875-75.1231 161.089-73.9287 144.493-71.917 128.148-69.2139 112.181-65.8195 96.7178-61.92 81.9372-57.3877 67.8998-52.4108 54.7962-46.9842 42.744-41.1661 31.8034-35.0165 22.1669-31.7512 17.8772-28.501 13.9897-25.1567 10.3882-21.7245 7.2798-18.2225 4.55598-14.6941 2.26905-11.1179 0.414759-7.43241-0.925434-3.72465-1.7344-0.145071-1.99473ZM-8.22391 347.11 2.0778 355.705-10.9793 358.789Z" transform="matrix(1.83697e-16 1 1 -1.83697e-16 482 427)"/><path d="M0.183834 1.99153-3.87867 2.36653-3.50921 2.29695-7.63421 3.48445-7.29307 3.35135-11.2931 5.35135-11.084 5.23054-15.1465 7.91804-14.9603 7.77858-18.9603 11.1536-18.8249 11.0282-22.8249 15.0907-22.7003 14.9518-26.5753 19.7018-26.5026 19.6071-30.3776 24.9821-30.312 24.8851-34.1245 30.8851-34.0689 30.7922-37.7564 37.3547-37.7271 37.3007-41.4146 44.3632-41.3729 44.2784-44.9354 51.9659-44.9059 51.8992-48.3434 60.0867-48.325 60.0413-51.7 68.6663-51.6799 68.6126-54.9299 77.6751-54.9114 77.6213-58.0364 87.1838-58.0228 87.1405-61.0228 97.078-61.011 97.0371-63.886 107.35-63.8686 107.283-69.1186 128.971-69.1032 128.901-73.7907 151.776-73.7766 151.7-77.7141 175.575-77.704 175.506-80.8915 200.194-80.8837 200.124-83.2587 225.437-83.2531 225.361-84.6906 251.111-84.6879 251.039-85.1879 276.976-85.1879 276.899-84.6879 302.836-84.6909 302.758-83.1909 328.446-83.1967 328.371-80.7592 353.683-80.767 353.615-77.517 378.365-77.5275 378.294-73.5275 402.17-73.5428 402.088-68.7303 424.963-68.7462 424.894-63.3712 446.581-63.389 446.515-60.4515 456.827-60.4637 456.786-57.4012 466.723-57.4189 466.669-54.1689 476.231-54.184 476.188-50.8715 485.251-50.8921 485.197-47.4546 493.822-47.4786 493.764-43.9161 501.952-43.9437 501.891-40.3187 509.516-40.3552 509.443-36.6052 516.568-36.6457 516.495-32.8332 523.058-32.8824 522.977-29.0074 528.977-29.0741 528.881-25.1366 534.256-25.2301 534.138-21.1676 538.888-21.2733 538.773-17.2108 542.836-17.347 542.712-13.2845 546.087-13.4707 545.949-9.34574 548.637-9.80367 548.416-6.95244 549.368-8.22009 553.162-11.3145 552.128-15.7514 549.237-19.974 545.729-24.1568 541.547-28.3189 536.68-32.3357 531.197-36.2682 525.108-40.1254 518.469-43.9138 511.27-47.5706 503.579-51.1588 495.332-54.6186 486.651-57.9488 477.54-61.2153 467.929-64.2926 457.943-67.2455 447.577-72.6373 425.822-77.4657 402.871-81.4784 378.921-84.7375 354.101-87.1819 328.717-88.6864 302.953-89.1879 276.937-88.6864 250.925-87.2448 225.101-84.863 199.716-81.6665 174.959-77.717 151.011-73.0147 128.064-67.7483 106.309-64.8583 95.9424-61.8456 85.9628-58.7047 76.3517-55.4354 67.2354-52.041 58.5609-48.5799 50.3172-44.9823 42.5537-41.2587 35.4221-37.5296 28.7856-33.6566 22.6904-29.7125 17.2195-25.7407 12.3509-21.6103 8.15598-17.4507 4.64626-13.1901 1.82773-8.91747-0.308581-4.43435-1.59918-0.183834-1.99153ZM-7.97695 544.953 2.0778 553.835-11.0612 556.55Z" transform="matrix(1.83697e-16 1 1 -1.83697e-16 482 427)"/><path d="M0.150515 1.99433-3.16198 2.24433-2.87864 2.20237-6.25364 2.95237-5.98139 2.8712-9.29389 4.1212-9.0518 4.01094-12.3018 5.76094-12.1479 5.66893-15.4604 7.85643-15.2911 7.73136-18.4786 10.3564-18.3934 10.2821-21.6434 13.2821-21.5081 13.1445-24.6331 16.6445-24.5782 16.5804-27.7032 20.3929-27.6242 20.2898-30.6242 24.4773-30.549 24.3644-36.424 33.8644-36.3507 33.7355-41.9757 44.548-41.9157 44.4221-47.1032 56.3596-47.0619 56.2568-51.8744 69.2568-51.8394 69.1537-56.1519 83.0912-56.1267 83.0025-59.9392 97.69-59.9166 97.5935-63.1041 112.968-63.0893 112.889-65.7143 128.764-65.7016 128.674-67.6391 144.924-67.6302 144.831-68.8177 161.331-68.813 161.232-69.188 177.92-69.1882 177.822-68.7507 194.447-68.7557 194.349-67.5057 210.912-67.5141 210.826-65.5766 227.076-65.5919 226.971-62.8419 242.846-62.8574 242.766-59.5449 258.141-59.5682 258.045-55.6307 272.732-55.6592 272.635-51.1592 286.573-51.1928 286.477-46.2553 299.477-46.3049 299.358-40.8674 311.296-40.9217 311.186-35.1717 321.998-35.2566 321.854-29.1316 331.354-29.2096 331.241-26.0846 335.429-26.1655 335.327-22.9155 339.14-22.9719 339.077-19.7219 342.577-19.8449 342.455-16.5324 345.455-16.6471 345.359-13.2721 347.984-13.4262 347.875-9.98875 350.063-10.3402 349.885-6.32323 351.441-7.76792 355.171-11.9693 353.544-15.6534 351.199-19.162 348.47-22.5942 345.362-25.932 341.767-29.2516 337.873-32.4563 333.579-38.6639 323.951-44.4821 313.01-49.9718 300.958-54.9502 287.85-59.4812 273.817-63.4447 259.032-66.7762 243.569-69.5422 227.602-71.4911 211.256-72.748 194.602-73.1881 177.879-72.8109 161.093-71.6165 144.497-69.6681 128.156-67.0291 112.196-63.8233 96.733-59.9868 81.9529-55.6445 67.9193-50.7939 54.8162-45.5565 42.7639-39.865 31.8237-33.9153 22.2029-30.838 17.9074-27.645 14.012-24.4275 10.4084-21.065 7.30456-17.7526 4.57664-14.2772 2.28161-10.8308 0.425859-7.26038-0.921482-3.60619-1.73352-0.150515-1.99433ZM-7.54794 347.001 2.66247 355.705-10.4264 358.651Z" transform="matrix(1.83697e-16 1 1 -1.83697e-16 681 427)"/><path d="M0.130866 1.99571-3.68163 2.24571-3.42646 2.21239-7.23896 2.96239-7.0019 2.90046-10.8144 4.15046-10.5917 4.06237-14.3417 5.81237-14.1798 5.72756-17.9298 7.91506-17.7906 7.82596-21.5406 10.451-21.4124 10.3533-25.0374 13.3533-24.9233 13.2513-28.5483 16.7513-28.4762 16.678-32.0387 20.4905-31.9654 20.4076-35.4654 24.5951-35.3646 24.4638-42.0521 33.9638-41.969 33.8356-48.4065 44.6481-48.3343 44.5157-54.2718 56.4532-54.2206 56.3418-59.7206 69.3418-59.6773 69.2303-64.6148 83.1678-64.5832 83.0709-68.9582 97.7584-68.9301 97.6539-72.6176 113.029-72.5959 112.926-75.5334 128.801-75.5189 128.712-77.7689 144.962-77.7569 144.854-79.1319 161.354-79.1257 161.24-79.5632 177.927-79.5634 177.815-79.0634 194.44-79.0694 194.335-77.6944 210.897-77.7064 210.788-75.4564 227.038-75.4737 226.934-72.4112 242.809-72.4338 242.706-68.6213 258.081-68.648 257.984-64.2105 272.672-64.2479 272.56-59.1229 286.497-59.1645 286.393-53.5395 299.393-53.5956 299.274-47.4706 311.212-47.5403 311.087-40.9778 321.9-41.0723 321.758-34.1348 331.258-34.2267 331.142-30.6642 335.329-30.7381 335.247-27.1131 339.059-27.1979 338.975-23.4479 342.475-23.5631 342.376-19.8131 345.376-19.9283 345.29-16.1158 347.915-16.2668 347.821-12.3918 350.008-12.6936 349.87-6.95159 351.95-8.31433 355.711-14.2131 353.574-18.3108 351.26-22.2558 348.544-26.1214 345.452-29.9708 341.859-33.675 337.963-37.3214 333.677-44.353 324.048-50.9968 313.102-57.1844 301.042-62.8578 287.93-68.0225 273.885-72.4916 259.093-76.3288 243.618-79.4113 227.639-81.6761 211.283-83.06 194.613-83.5633 177.879-83.1228 161.078-81.7386 144.467-79.4749 128.118-76.5196 112.147-72.8072 96.6684-68.4022 81.8802-63.4277 67.8383-57.8805 54.7267-51.8821 42.6667-45.3669 31.7237-38.5877 22.0935-34.9991 17.7999-31.3637 13.9094-27.6466 10.3205-23.9005 7.22029-20.0167 4.50161-16.1162 2.22633-12.1746 0.386909-8.13147-0.938698-4.07203-1.73728-0.130866-1.99571ZM-8.47329 347.562 2.18992 355.704-10.7218 359.35Z" transform="matrix(-6.12323e-17 -1 -1 6.12323e-17 995.704 507.19)"/><path d="M0.153393 1.99411-4.72161 2.36911-4.40166 2.31818-9.27666 3.50568-8.98247 3.40936-13.795 5.40936-13.5874 5.30867-18.3999 7.99617-18.2266 7.88746-23.0391 11.2625-22.8876 11.1449-27.6376 15.2074-27.5046 15.0827-32.1296 19.8327-32.0465 19.742-36.6715 25.117-36.5875 25.0125-41.0875 31.0125-41.038 30.9436-45.538 37.5061-45.4806 37.4173-49.7931 44.4798-49.7497 44.4052-53.9997 52.0927-53.9639 52.0249-58.0889 60.2124-58.0606 60.1539-62.0606 68.7789-62.0361 68.7238-65.9111 77.7863-65.888 77.7302-69.638 87.2927-69.6173 87.2374-73.1798 97.1749-73.1651 97.1325-76.6026 107.445-76.5797 107.371-82.8922 129.059-82.8691 128.973-88.4316 151.848-88.4125 151.76-93.1 175.635-93.0859 175.555-96.8984 200.243-96.8872 200.158-99.6997 225.471-99.6918 225.381-101.379 251.131-101.376 251.048-102.001 276.986-102.001 276.889-101.376 302.827-101.38 302.739-99.6296 328.427-99.6378 328.337-96.7628 353.649-96.7748 353.561-92.8373 378.311-92.8519 378.23-88.0394 402.105-88.0591 402.017-82.3716 424.892-82.3967 424.801-75.8967 446.488-75.9186 446.42-72.4186 456.732-72.4374 456.679-68.7499 466.617-68.7672 466.572-64.9547 476.134-64.9782 476.078-61.0407 485.14-61.0707 485.075-56.9457 493.7-56.9749 493.641-52.7249 501.829-52.7653 501.755-48.3903 509.38-48.4273 509.318-43.9898 516.443-44.0454 516.358-39.4829 522.921-39.541 522.841-34.916 528.841-35.0013 528.738-30.2513 534.113-30.3451 534.014-25.5326 538.764-25.6474 538.659-20.8349 542.722-20.9964 542.599-16.0589 545.974-16.2314 545.868-11.2939 548.556-11.6359 548.409-6.54537 550.051-7.77355 553.858-13.042 552.158-18.2326 549.333-23.3375 545.844-28.2871 541.666-33.2035 536.813-38.0431 531.337-42.739 525.245-47.3585 518.6-51.8418 511.402-56.2557 503.709-60.5402 495.455-64.6949 486.768-68.659 477.644-72.4917 468.031-76.1973 458.044-79.718 447.671-86.2419 425.904-91.9517 402.939-96.7812 378.98-100.732 354.145-103.617 328.743-105.373 302.967-106.001 276.937-105.373 250.91-103.68 225.074-100.858 199.674-97.0329 174.905-92.3289 150.946-86.7453 127.984-80.4095 106.217-76.9528 95.8462-73.3727 85.8598-69.6009 76.2416-65.7021 67.1234-61.6757 58.4416-57.5189 50.1909-53.2294 42.4321-48.8669 35.2876-44.313 28.6464-39.7473 22.5588-35.0384 17.0864-30.3068 12.2269-25.4145 8.04267-20.4395 4.55375-15.4367 1.75999-10.3742-0.34394-5.19044-1.60664-0.153393-1.99411ZM-7.99554 545.686 2.66215 553.835-10.252 557.472Z" transform="matrix(-6.12323e-17 -1 -1 6.12323e-17 995.835 507.662)"/><path d="M0.194723 1.9905-5.55528 2.553-5.20056 2.48555-10.8881 4.11055-10.6069 4.00688-16.3569 6.63188-16.1041 6.49364-21.7291 10.1186-21.5423 9.98235-27.1673 14.6074-27.0313 14.4847-32.5938 19.9847-32.4794 19.8617-37.9794 26.2991-37.8951 26.1934-43.3326 33.5059-43.2636 33.407-48.5761 41.532-48.5286 41.4558-53.7786 50.3308-53.7321 50.2477-58.8571 59.9352-58.8233 59.8683-63.8233 70.2433-63.7932 70.1777-68.6682 81.3027-68.6437 81.2445-73.3312 92.932-73.311 92.8793-77.8735 105.254-77.8554 105.203-82.2304 118.141-82.2173 118.101-86.4673 131.601-86.452 131.549-90.452 145.549-90.4407 145.509-94.2532 160.009-94.2439 159.972-97.8689 174.909-97.8594 174.868-101.234 190.18-101.226 190.139-104.351 205.889-104.341 205.838-109.904 238.275-109.892 238.2-114.33 271.762-114.322 271.692-117.634 306.067-117.628 305.993-119.691 340.93-119.688 340.852-120.375 376.039-120.375 375.961-119.688 411.148-119.691 411.066-117.566 446.004-117.572 445.93-114.197 480.305-114.206 480.231-109.643 513.793-109.655 513.717-103.968 546.155-103.977 546.103-100.79 561.853-100.799 561.812-97.3611 577.124-97.3708 577.083-93.6833 592.021-93.6949 591.976-89.7574 606.476-89.769 606.435-85.644 620.435-85.6548 620.399-81.4048 633.899-81.4235 633.843-76.9235 646.78-76.9422 646.729-72.2547 659.104-72.2756 659.051-67.4631 670.738-67.4845 670.689-62.547 681.814-62.5818 681.739-57.4568 692.114-57.4916 692.047-52.2416 701.734-52.2839 701.66-46.9714 710.535-47.0254 710.45-41.5879 718.575-41.6582 718.477-36.0957 725.789-36.1814 725.684-30.5564 732.122-30.6722 732-24.9847 737.5-25.1215 737.379-19.3715 742.004-19.5666 741.865-13.7541 745.49-14.0959 745.32-6.44974 748.254-7.88286 751.989-15.7081 748.986-21.7851 745.196-27.6997 740.439-33.5132 734.817-39.2382 728.265-44.8785 720.85-50.3777 712.633-55.738 703.678-61.0264 693.92-66.1864 683.474-71.1515 672.287-75.9852 660.548-80.6925 648.12-85.2113 635.129-89.4757 621.583-93.612 607.545-97.5612 593.002-101.259 578.021-104.706 562.667-107.903 546.871-113.602 514.37-118.174 480.732-121.557 446.283-123.686 411.268-124.375 376-123.686 340.734-121.619 305.72-118.3 271.273-113.853 237.637-108.279 205.136-105.145 189.34-101.761 173.986-98.1266 159.01-94.3039 144.471-90.2907 130.425-86.0264 116.879-81.6359 103.896-77.0543 91.4692-72.3445 79.7262-67.4424 68.5392-62.4104 58.0979-57.2456 48.3352-51.9485 39.3806-46.5784 31.1675-41.0645 23.7523-35.466 17.1994-29.7785 11.5759-23.9932 6.81909-18.1495 3.05311-12.1314 0.305728-6.12514-1.41035-0.194723-1.9905ZM-8.02537 743.856 2.66215 751.966-10.2386 755.65Z" transform="matrix(-6.12323e-17 -1 -1 6.12323e-17 995.966 507.662)"/><path d="M0.142494 1.99492-3.35751 2.24492-3.08798 2.2071-6.65048 2.9571-6.38983 2.88348-9.88983 4.13348-9.65513 4.03233-13.0926 5.78233-12.9262 5.68732-16.3637 7.87482-16.2237 7.77704-19.6612 10.402-19.5463 10.3073-22.9213 13.3073-22.8103 13.2008-26.1853 16.7008-26.103 16.61-29.353 20.4225-29.2836 20.3364-32.4711 24.5239-32.3917 24.4117-38.6417 33.9117-38.5552 33.7674-44.4302 44.5799-44.371 44.4619-49.871 56.3994-49.8238 56.2883-54.8863 69.2883-54.8493 69.1847-59.4118 83.1222-59.3828 83.0255-63.3828 97.713-63.3607 97.6239-66.7982 112.999-66.7794 112.904-69.5294 128.779-69.515 128.682-71.515 144.932-71.5057 144.839-72.7557 161.339-72.7507 161.24-73.1882 177.927-73.1882 177.822-72.7507 194.447-72.7562 194.342-71.4437 210.904-71.4544 210.803-69.3294 227.053-69.3432 226.964-66.5307 242.839-66.5516 242.736-62.9891 258.111-63.012 258.022-58.887 272.709-58.9194 272.605-54.1694 286.542-54.2049 286.446-49.0174 299.446-49.0695 299.327-43.382 311.265-43.4473 311.139-37.3223 321.952-37.4068 321.816-30.9693 331.316-31.0564 331.197-27.7439 335.384-27.815 335.299-24.44 339.112-24.5233 339.023-21.0233 342.523-21.1359 342.419-17.6359 345.419-17.7375 345.337-14.2375 347.962-14.4042 347.85-10.7792 350.038-11.1027 349.88-6.39062 351.669-7.81019 355.409-12.6912 353.556-16.557 351.223-20.1896 348.498-23.7974 345.406-27.3947 341.809-30.8467 337.909-34.2393 333.62-40.7632 323.993-46.9626 313.049-52.7085 300.989-57.9391 287.881-62.7232 273.843-66.8755 259.059-70.4602 243.588-73.2897 227.617-75.4272 211.271-76.7479 194.605-77.1882 177.875-76.748 161.086-75.4907 144.49-73.479 128.144-70.7124 112.173-67.2543 96.7063-63.2289 81.9258-58.6336 67.888-53.5293 54.7805-47.9763 42.7281-42.0296 31.7836-35.6955 22.1558-32.4329 17.8696-29.1073 13.9684-25.6363 10.3688-22.148 7.26818-18.5834 4.54608-14.9928 2.26119-11.3558 0.409582-7.60734-0.929136-3.77855-1.7352-0.142494-1.99492ZM-7.75349 347.248 2.66226 355.704-10.3524 358.963Z" transform="matrix(-6.12323e-17 -1 -1 6.12323e-17 797.704 507.662)"/><path d="M0.170802 1.99269-4.2042 2.36769-3.8511 2.30516-8.2261 3.49266-7.91848 3.38145-12.2935 5.38145-12.0672 5.25988-16.3797 7.94738-16.2049 7.82501-20.5174 11.2-20.368 11.0707-24.618 15.1332-24.4997 15.0101-28.6872 19.7601-28.6009 19.6551-32.7259 25.0301-32.6644 24.9456-36.7894 30.9456-36.7297 30.8534-40.7297 37.4159-40.6841 37.337-44.5591 44.3995-44.5207 44.3261-48.3332 52.0136-48.3066 51.9578-52.0566 60.1453-52.0312 60.0874-55.6562 68.7124-55.63 68.6468-59.0675 77.7093-59.0515 77.6656-62.4265 87.2281-62.4116 87.1842-65.6616 97.1217-65.6453 97.0694-68.7078 107.382-68.6904 107.32-74.3779 129.007-74.3575 128.922-79.295 151.797-79.281 151.726-83.531 175.601-83.5191 175.526-86.9566 200.213-86.9472 200.134-89.4472 225.447-89.4412 225.371-91.0037 251.121-91.0005 251.043-91.563 276.981-91.563 276.894-91.0005 302.832-91.004 302.749-89.379 328.436-89.3852 328.361-86.8227 353.674-86.8322 353.595-83.3322 378.345-83.3453 378.264-78.9703 402.139-78.9859 402.063-73.8609 424.938-73.8821 424.852-68.0071 446.54-68.0235 446.482-64.8985 456.795-64.9151 456.742-61.6026 466.68-61.6179 466.636-58.1804 476.198-58.2055 476.132-54.5805 485.195-54.5985 485.151-50.911 493.776-50.9369 493.718-47.1244 501.906-47.1604 501.832-43.2229 509.457-43.2626 509.384-39.2001 516.509-39.237 516.447-35.1745 523.01-35.2429 522.906-30.9929 528.906-31.0562 528.822-26.8062 534.197-26.8942 534.093-22.5817 538.843-22.7016 538.722-18.3266 542.784-18.4768 542.658-14.0393 546.033-14.2139 545.914-9.77643 548.602-10.1781 548.416-6.44159 549.665-7.71034 553.459-11.6581 552.139-16.3765 549.281-20.9764 545.782-25.4859 541.595-29.9016 536.731-34.2266 531.262-38.5429 525.168-42.657 518.522-46.758 511.329-50.7333 503.631-54.5765 495.378-58.2857 486.702-61.9326 477.585-65.39 467.967-68.7186 457.981-71.8602 447.614-77.7545 425.855-82.8977 402.899-87.2871 378.945-90.7983 354.116-93.3686 328.726-94.9986 302.96-95.563 276.937-94.9987 250.918-93.4315 225.091-90.9239 199.701-87.4757 174.937-83.2127 150.989-78.2582 128.035-72.5514 106.274-69.4719 95.9044-66.2062 85.9187-62.8157 76.3124-59.3575 67.1952-55.7065 58.5084-51.9305 50.2641-48.0858 42.5118-44.169 35.373-40.1167 28.7247-35.931 22.6363-31.7327 17.1659-27.4437 12.3008-23.0605 8.11093-18.586 4.60914-14.0736 1.79706-9.43227-0.324676-4.72517-1.60232-0.170802-1.99269ZM-7.65975 545.265 2.66226 553.835-10.3875 556.951Z" transform="matrix(-6.12323e-17 -1 -1 6.12323e-17 797.835 507.662)"/><path d="M0.145071 1.99473-3.29243 2.24473-3.01117 2.20403-6.44867 2.95403-6.19151 2.87959-9.62901 4.12959-9.39187 4.02551-12.7669 5.77551-12.5997 5.67831-15.9747 7.86581-15.8346 7.7662-19.2096 10.3912-19.0949 10.2949-22.4074 13.2949-22.2844 13.1734-25.5344 16.6734-25.4656 16.5953-28.6531 20.4078-28.5961 20.3364-31.7836 24.5239-31.689 24.3884-37.7515 33.8884-37.6717 33.7516-43.4217 44.5641-43.3638 44.4461-48.7388 56.3836-48.6928 56.2726-53.6303 69.2726-53.5967 69.177-58.0967 83.1145-58.0662 83.0102-61.9412 97.6977-61.9215 97.6163-65.2965 112.991-65.2781 112.896-67.9656 128.771-67.9525 128.682-69.9525 144.932-69.9427 144.831-71.1302 161.331-71.1257 161.24-71.5632 177.927-71.5632 177.822-71.1257 194.447-71.1307 194.349-69.8807 210.912-69.8909 210.811-67.8284 227.061-67.8432 226.964-65.0307 242.839-65.0482 242.751-61.6107 258.126-61.6349 258.029-57.5724 272.717-57.6018 272.62-52.9768 286.558-53.0144 286.454-47.8894 299.454-47.9371 299.343-42.3746 311.28-42.4387 311.155-36.4387 321.967-36.5217 321.831-30.2092 331.331-30.295 331.211-27.045 335.399-27.1153 335.313-23.8028 339.126-23.8728 339.049-20.4978 342.549-20.6224 342.431-17.1849 345.431-17.2862 345.348-13.8487 347.973-14.0025 347.866-10.5025 350.054-10.8546 349.879-6.3716 351.576-7.78744 355.317-12.4551 353.551-16.2019 351.209-19.7658 348.487-23.3174 345.388-26.7882 341.788-30.171 337.895-33.5001 333.606-39.8975 323.978-45.9705 313.034-51.5884 300.977-56.7559 287.87-61.4141 273.832-65.5034 259.048-68.9615 243.58-71.7904 227.613-73.8655 211.264-75.123 194.602-75.5632 177.875-75.1231 161.089-73.9287 144.493-71.917 128.148-69.2139 112.181-65.8195 96.7178-61.92 81.9372-57.3877 67.8998-52.4108 54.7962-46.9842 42.744-41.1661 31.8034-35.0165 22.1669-31.7512 17.8772-28.501 13.9897-25.1567 10.3882-21.7245 7.2798-18.2225 4.55598-14.6941 2.26905-11.1179 0.414759-7.43241-0.925434-3.72465-1.7344-0.145071-1.99473ZM-7.67318 347.15 2.66226 355.704-10.3826 358.84Z" transform="matrix(-6.12323e-17 -1 -1 6.12323e-17 599.704 507.662)"/><path d="M594 67C594 41.5949 614.595 21 640 21 665.405 21 686 41.5949 686 67 686 92.4051 665.405 113 640 113 614.595 113 594 92.4051 594 67Z" stroke="#000000" stroke-width="4" stroke-miterlimit="8" fill="none" fill-rule="evenodd"/><text font-family="Calibri,Calibri_MSFontService,sans-serif" font-weight="400" font-size="37" transform="translate(624.833 80)">f1</text><path d="M1.2476-1.56317 389.694 308.464 387.198 311.591-1.2476 1.56317ZM390.625 304.09 396.262 316.265 383.14 313.469Z" fill="#4472C4" transform="matrix(-1 0 0 1 640.262 113)"/><path d="M1.69488-1.06179 194.517 306.729 191.127 308.853-1.69488 1.06179ZM196.845 302.91 198.131 316.265 186.675 309.281Z" fill="#4472C4" transform="matrix(-1 0 0 1 640.131 113)"/><path d="M642 113 642 419.737 638 419.737 638 113ZM646 417.737 640 429.737 634 417.737Z" fill="#4472C4"/><path d="M641.695 111.938 834.516 419.728 831.127 421.852 638.305 114.062ZM836.845 415.91 838.131 429.265 826.676 422.281Z" fill="#4472C4"/><path d="M641.248 111.437 1029.69 421.464 1027.2 424.591 638.752 114.563ZM1030.63 417.09 1036.26 429.265 1023.14 426.469Z" fill="#4472C4"/><text fill="#4472C4" font-family="Calibri,Calibri_MSFontService,sans-serif" font-weight="400" font-size="27" transform="translate(457.31 272)">a1_1<tspan font-size="27" x="187.798" y="8">a1_3</tspan><tspan font-size="27" x="105.867" y="8">a1_2</tspan><tspan font-size="27" x="277.283" y="-17">a1_4</tspan><tspan font-size="27" x="336.591" y="-53">a1_5</tspan><tspan fill="#000000" font-size="27" x="-141.929" y="148">b1_2</tspan><tspan fill="#000000" font-size="27" x="-143.998" y="261">b2_1</tspan><tspan fill="#000000" font-size="27" x="57.0332" y="148">b2_3</tspan><tspan fill="#000000" font-size="27" x="54.9641" y="261">b3_2</tspan><tspan fill="#000000" font-size="27" x="256.028" y="148">b3_4</tspan><tspan fill="#000000" font-size="27" x="253.959" y="261">b4_3</tspan><tspan fill="#000000" font-size="27" x="452.09" y="147">b3_4</tspan><tspan fill="#000000" font-size="27" x="450.021" y="260">b4_3</tspan></text></g></svg>