<svg width="1280" height="720" xmlns="http://www.w3.org/2000/svg" xmlns:xlink="http://www.w3.org/1999/xlink" overflow="hidden"><defs><clipPath id="clip0"><rect x="0" y="0" width="1280" height="720"/></clipPath></defs><g clip-path="url(#clip0)"><rect x="0" y="0" width="1280" height="720" fill="#FFFFFF"/><rect x="206" y="429" width="76" height="76" stroke="#000000" stroke-width="4" stroke-miterlimit="8" fill="#FFFFFF"/><text font-family="Calibri,Calibri_MSFontService,sans-serif" font-weight="400" font-size="37" transform="translate(226.155 480)">x1</text><rect x="404" y="429" width="76" height="76" stroke="#000000" stroke-width="4" stroke-miterlimit="8" fill="#FFFFFF"/><text font-family="Calibri,Calibri_MSFontService,sans-serif" font-weight="400" font-size="37" transform="translate(424.286 480)">x2</text><rect x="602" y="430" width="76" height="75" stroke="#000000" stroke-width="4" stroke-miterlimit="8" fill="#FFFFFF"/><text font-family="Calibri,Calibri_MSFontService,sans-serif" font-weight="400" font-size="37" transform="translate(622.417 480)">x3</text><rect x="800" y="429" width="76" height="76" stroke="#000000" stroke-width="4" stroke-miterlimit="8" fill="#FFFFFF"/><text font-family="Calibri,Calibri_MSFontService,sans-serif" font-weight="400" font-size="37" transform="translate(820.547 480)">x4</text><rect x="998" y="429" width="76" height="76" stroke="#000000" stroke-width="4" stroke-miterlimit="8" fill="#FFFFFF"/><text font-family="Calibri,Calibri_MSFontService,sans-serif" font-weight="400" font-size="37" transform="translate(1018.68 480)">x5</text><path d="M473.02 48.0505 473.303 46.0694 474.157 43.8947 475.556 41.8342 477.367 39.8833 479.52 38.0669 482.088 36.2232 485.037 34.4539 488.404 32.77 496.023 29.4687 504.954 26.3652 515.106 23.4015 526.372 20.6322 538.559 18.1192 551.559 15.7957 565.301 13.8505 579.665 12.0941 594.529 10.7771 609.702 9.71122 625.197 9.08387 640.75 8.89574 656.303 9.08388 671.727 9.71089 686.967 10.6516 701.768 12.0314 716.123 13.6613 729.864 15.5435 742.927 17.7415 755.052 20.1917 766.31 22.8334 776.467 25.6722 785.395 28.7116 793.006 31.8828 796.372 33.5012 799.501 35.3089 801.761 37.6894 798.86 40.4435 796.8 38.273 797.249 38.6276 794.437 37.0026 794.571 37.0734 791.321 35.5109 791.418 35.5545 783.918 32.4295 784.043 32.4767 775.23 29.4767 775.337 29.5096 765.274 26.6971 765.356 26.718 754.168 24.093 754.229 24.1063 742.166 21.6688 742.231 21.6807 729.231 19.4932 729.291 19.5024 715.603 17.6274 715.649 17.6331 701.337 16.0081 701.377 16.0123 686.627 14.6373 686.689 14.6421 671.502 13.7046 671.544 13.7067 656.169 13.0817 656.226 13.0832 640.726 12.8957 640.774 12.8957 625.274 13.0832 625.331 13.0817 609.893 13.7067 609.953 13.7035 594.828 14.766 594.864 14.7631 580.051 16.0756 580.118 16.0686 565.805 17.8186 565.843 17.8136 552.155 19.7511 552.227 19.7397 539.289 22.0522 539.341 22.0422 527.216 24.5422 527.29 24.5256 516.102 27.2756 516.185 27.2533 506.123 30.1908 506.219 30.1601 497.406 33.2226 497.545 33.1685 490.045 36.4185 490.144 36.3722 486.894 37.9972 487.029 37.9234 484.216 39.6109 484.354 39.5205 481.916 41.2705 482.04 41.1745 480.04 42.862 480.216 42.6943 478.591 44.4443 478.78 44.2064 477.592 45.9564 477.799 45.5647 477.111 47.3147 477.23 46.8662 476.98 48.6162ZM803.853 33.8272 806.398 47.0001 794.333 41.1322Z"/><path d="M808.378 112.283 808.095 114.264 807.241 116.439 805.843 118.499 804.031 120.45 801.878 122.267 799.31 124.11 796.361 125.88 792.994 127.563 785.375 130.865 776.445 133.968 766.292 136.932 755.027 139.701 742.839 142.214 729.839 144.538 716.097 146.483 701.733 148.239 686.869 149.556 671.696 150.622 656.201 151.25 640.648 151.438 625.096 151.25 609.671 150.623 594.431 149.682 579.63 148.302 565.275 146.672 551.534 144.79 538.472 142.592 526.347 140.142 515.088 137.5 504.931 134.661 496.003 131.622 488.392 128.451 485.026 126.832 481.897 125.025 479.637 122.644 482.538 119.89 484.599 122.06 484.149 121.706 486.961 123.331 486.827 123.26 490.077 124.823 489.98 124.779 497.48 127.904 497.355 127.857 506.168 130.857 506.062 130.824 516.124 133.636 516.043 133.615 527.23 136.24 527.169 136.227 539.232 138.665 539.168 138.653 552.168 140.84 552.107 140.831 565.795 142.706 565.749 142.7 580.061 144.325 580.021 144.321 594.771 145.696 594.709 145.691 609.896 146.629 609.854 146.627 625.229 147.252 625.172 147.25 640.672 147.438 640.624 147.438 656.124 147.25 656.067 147.252 671.505 146.627 671.446 146.63 686.571 145.567 686.534 145.57 701.347 144.258 701.281 144.265 715.593 142.515 715.555 142.52 729.243 140.582 729.171 140.594 742.109 138.281 742.057 138.291 754.182 135.791 754.108 135.808 765.296 133.058 765.213 133.08 775.275 130.143 775.179 130.173 783.992 127.111 783.853 127.165 791.353 123.915 791.254 123.961 794.504 122.336 794.369 122.41 797.182 120.723 797.044 120.813 799.482 119.063 799.359 119.159 801.359 117.471 801.183 117.639 802.808 115.889 802.618 116.127 803.806 114.377 803.599 114.769 804.287 113.019 804.168 113.467 804.418 111.717ZM477.545 126.506 475 113.333 487.065 119.201Z"/><path d="M396 80C396 54.5949 416.595 34 442 34 467.405 34 488 54.5949 488 80 488 105.405 467.405 126 442 126 416.595 126 396 105.405 396 80Z" stroke="#000000" stroke-width="4" stroke-miterlimit="8" fill="none" fill-rule="evenodd"/><text font-family="Calibri,Calibri_MSFontService,sans-serif" font-weight="400" font-size="37" transform="translate(426.702 92)">f1</text><path d="M1.67472-1.0933 194.339 294.031 190.989 296.218-1.67472 1.0933ZM196.595 290.17 198.131 303.498 186.547 296.73Z" fill="#4472C4" transform="matrix(-1 0 0 1 442.131 126)"/><path d="M444 126 444 419.498 440 419.498 440 126ZM448 417.498 442 429.498 436 417.498Z" fill="#4472C4"/><path d="M443.676 124.908 636.346 420.501 632.995 422.686 440.324 127.092ZM638.605 416.641 640.131 429.97 628.552 423.194Z" fill="#4472C4"/><path d="M443.216 124.412 831.54 421.831 829.108 425.006 440.784 127.588ZM832.383 417.438 838.262 429.498 825.087 426.965Z" fill="#4472C4"/><path d="M442.91 124.219 1028.4 423.169 1026.58 426.732 441.09 127.781ZM1028.43 418.697 1036.39 429.498 1022.98 429.385Z" fill="#4472C4"/><text fill="#4472C4" font-family="Calibri,Calibri_MSFontService,sans-serif" font-weight="400" font-size="27" transform="translate(394.113 151)">a1<tspan fill="#000000" font-size="27" x="215.637" y="-104">bl1_2</tspan><tspan fill="#000000" font-size="27" x="215.637" y="-18">bl2_1</tspan></text><path d="M792 80C792 54.5949 812.595 34 838 34 863.405 34 884 54.5949 884 80 884 105.405 863.405 126 838 126 812.595 126 792 105.405 792 80Z" stroke="#000000" stroke-width="4" stroke-miterlimit="8" fill="none" fill-rule="evenodd"/><text font-family="Calibri,Calibri_MSFontService,sans-serif" font-weight="400" font-size="37" transform="translate(822.964 92)">f2</text><path d="M0.909503-1.78124 586.398 297.171 584.579 300.733-0.909503 1.78124ZM586.433 292.697 594.392 303.498 580.976 303.385Z" fill="#4472C4" transform="matrix(-1 0 0 1 838.392 126)"/><path d="M1.2161-1.5878 389.537 295.829 387.105 299.004-1.2161 1.5878ZM390.383 291.438 396.262 303.498 383.086 300.965Z" fill="#4472C4" transform="matrix(-1 0 0 1 838.262 126)"/><path d="M1.6755-1.09211 194.346 294.501 190.995 296.685-1.6755 1.09211ZM196.605 290.641 198.131 303.97 186.552 297.194Z" fill="#4472C4" transform="matrix(-1 0 0 1 838.131 126)"/><path d="M840 126 840 419.498 836 419.498 836 126ZM844 417.498 838 429.498 832 417.498Z" fill="#4472C4"/><path d="M839.675 124.907 1032.34 420.031 1028.99 422.218 836.325 127.093ZM1034.6 416.17 1036.13 429.498 1024.55 422.73Z" fill="#4472C4"/><text fill="#4472C4" font-family="Calibri,Calibri_MSFontService,sans-serif" font-weight="400" font-size="27" transform="translate(859.222 145)">a2</text></g></svg>